<?xml version="1.0" encoding="UTF-8"?>
<svg id="Layer_1" data-name="Layer 1" xmlns="http://www.w3.org/2000/svg" viewBox="0 0 714 119">
  <defs>
    <style>
      .cls-1 {
        fill: #0098ff;
        stroke-width: 0px;
      }
    </style>
  </defs>
  <path class="cls-1" d="M118.73,41.33l-31.84,75.11h-3.76l-22.66-59.82-22.87,59.82h-3.53L2.53,41.33h7.73l25.14,60.06,23.13-60.06h4.28l22.4,60.06,25.72-60.06h7.79Z"/>
  <path class="cls-1" d="M138.03,3.13v13.45h-7.93V3.13h7.93ZM138.03,41.33v73.67h-7.93V41.33h7.93Z"/>
  <path class="cls-1" d="M167.5,41.33v12.81h.32c6.14-9.5,14.23-14.25,24.26-14.25,8.33,0,14.97,2.67,19.94,8.01,4.96,5.34,7.45,12.73,7.45,22.18v44.92h-7.85v-41.96c0-16.98-6.67-25.46-20.02-25.46-9.77,0-17.8,5.26-24.1,15.78v51.65h-7.85V41.33h7.85Z"/>
  <path class="cls-1" d="M254.46,16.9v24.42h20.66v6.41h-20.66v43.8c0,7.05.57,11.68,1.72,13.89,1.15,2.22,4.23,3.32,9.25,3.32,3.84,0,8.33-1.2,13.45-3.6v7.53c-5.18,2.51-10.25,3.76-15.21,3.76s-8.92-1.39-12.17-4.16c-3.26-2.78-4.88-6.62-4.88-11.53v-53.01h-19.86v-6.41h19.86v-17.54l5.37-6.89h2.48Z"/>
  <path class="cls-1" d="M352.32,75.44h-58.06c-.16,1.28-.24,2.56-.24,3.84,0,8.22,2.94,15.19,8.81,20.9,5.87,5.71,12.81,8.57,20.82,8.57,9.34,0,18.47-3.66,27.39-10.97v8.89c-8.44,6.51-17.88,9.77-28.35,9.77s-19.41-3.68-26.35-11.05c-6.94-7.37-10.41-16.74-10.41-28.11,0-10.78,3.2-19.71,9.61-26.79,6.41-7.07,14.47-10.61,24.18-10.61,9.13,0,16.84,3.19,23.14,9.57,6.3,6.38,9.45,15.04,9.45,25.99ZM295.3,69.11h47.73c-2.78-14.36-10.54-21.54-23.3-21.54-6.03,0-11.25,1.88-15.66,5.65s-7.33,9.06-8.77,15.9Z"/>
  <path class="cls-1" d="M419.1,48.61l-4.56,7.37c-6.14-5.61-11.08-8.41-14.81-8.41-7.37,0-15.24,7.05-23.62,21.14v46.29h-7.85V41.33h7.85v19.38h.32c8.81-13.88,17.4-20.82,25.79-20.82,4.8,0,10.44,2.91,16.9,8.73Z"/>
  <path class="cls-1" d="M486.21,3.13v111.87h-7.93v-5.77c-6.73,4.8-13.99,7.21-21.78,7.21-10.46,0-19.29-3.7-26.47-11.09-7.18-7.39-10.77-16.48-10.77-27.27s3.54-20.05,10.61-27.31c7.07-7.26,15.95-10.89,26.63-10.89,6.78,0,14.04,1.98,21.78,5.93V3.13h7.93ZM478.28,102.03v-47.57c-7.05-4.59-14.2-6.89-21.46-6.89-8.49,0-15.48,2.82-20.98,8.45-5.5,5.63-8.25,12.83-8.25,21.58s2.94,16.34,8.81,22.26c5.87,5.93,13.21,8.89,22.02,8.89,6.83,0,13.45-2.24,19.86-6.73Z"/>
  <path class="cls-1" d="M540.58,39.88c10.68,0,19.58,3.66,26.71,10.97,7.13,7.31,10.69,16.44,10.69,27.39s-3.56,19.98-10.69,27.27-16.03,10.93-26.71,10.93-19.61-3.64-26.79-10.93c-7.18-7.29-10.77-16.38-10.77-27.27s3.59-20.07,10.77-27.39c7.18-7.31,16.11-10.97,26.79-10.97ZM540.58,108.75c8.27,0,15.19-2.9,20.74-8.69,5.55-5.79,8.33-13.07,8.33-21.82s-2.79-15.99-8.37-21.86c-5.58-5.87-12.48-8.81-20.7-8.81s-15.28,2.91-20.86,8.73c-5.58,5.82-8.37,13.13-8.37,21.94s2.79,16.03,8.37,21.82c5.58,5.79,12.53,8.69,20.86,8.69Z"/>
  <path class="cls-1" d="M647.16,43.49v8.73c-7.05-3.1-13.43-4.64-19.14-4.64-8.22,0-14.91,2.86-20.06,8.57-5.15,5.71-7.73,13.13-7.73,22.26s2.58,16.67,7.73,22.14c5.15,5.47,12.05,8.21,20.7,8.21,6.3,0,12.92-1.41,19.86-4.24v8.17c-7.37,2.51-14.2,3.76-20.5,3.76-10.78,0-19.5-3.42-26.15-10.25-6.65-6.83-9.97-15.8-9.97-26.91s3.35-21.05,10.05-28.39c6.7-7.34,15.25-11.01,25.67-11.01,5.71,0,12.22,1.2,19.54,3.6Z"/>
  <path class="cls-1" d="M704.1,46.13v8.49c-7.47-5.02-14.2-7.53-20.18-7.53-4.43,0-8.17,1.2-11.21,3.59s-4.56,5.35-4.56,8.86c0,2.5.92,4.81,2.78,6.91,1.85,2.1,6.95,4.77,15.29,7.99,8.35,3.23,13.8,6.57,16.36,10.04,2.56,3.47,3.84,7.34,3.84,11.61,0,5.71-2.32,10.53-6.97,14.45s-10.38,5.89-17.22,5.89c-7.42,0-14.79-2.24-22.1-6.73v-7.69c8.7,4.48,16.42,6.73,23.14,6.73,4.54,0,8.26-1.2,11.17-3.6,2.91-2.4,4.36-5.47,4.36-9.2,0-2.56-.95-4.92-2.85-7.08-1.9-2.16-7.02-4.9-15.38-8.21-8.35-3.31-13.77-6.59-16.25-9.82-2.48-3.23-3.72-6.82-3.72-10.77,0-5.61,2.31-10.37,6.93-14.29,4.62-3.92,10.24-5.89,16.86-5.89,6.03,0,12.6,2.08,19.7,6.25Z"/>
</svg>