<?xml version="1.0" encoding="UTF-8" standalone="no"?>
<!DOCTYPE svg PUBLIC "-//W3C//DTD SVG 1.1//EN" "http://www.w3.org/Graphics/SVG/1.1/DTD/svg11.dtd">
<svg width="100%" height="100%" viewBox="0 0 520 54" version="1.1" xmlns="http://www.w3.org/2000/svg" xmlns:xlink="http://www.w3.org/1999/xlink" xml:space="preserve" xmlns:serif="http://www.serif.com/" style="fill-rule:evenodd;clip-rule:evenodd;stroke-linejoin:round;stroke-miterlimit:2;">
    <g id="Artboard1" transform="matrix(1.01465,0,0,0.104297,0,0)">
        <rect x="0" y="0" width="512" height="512" style="fill:none;"/>
        <g transform="matrix(4.86881,0,0,47.3663,-676.908,-10589.6)">
            <path d="M142.055,231.973L140.627,231.973L139.151,223.573L139.931,223.573L141.275,231.517L141.419,231.517L143.159,223.573L144.575,223.573L146.315,231.517L146.459,231.517L147.803,223.573L148.583,223.573L147.107,231.973L145.679,231.973L143.939,224.029L143.795,224.029L142.055,231.973Z" style="fill:white;fill-rule:nonzero;"/>
            <path d="M150.239,231.973L149.519,231.973L149.519,226.141L150.239,226.141L150.239,231.973ZM149.879,225.133C149.703,225.133 149.555,225.073 149.435,224.953C149.315,224.833 149.255,224.685 149.255,224.509C149.255,224.325 149.315,224.175 149.435,224.059C149.555,223.943 149.703,223.885 149.879,223.885C150.063,223.885 150.213,223.943 150.329,224.059C150.445,224.175 150.503,224.325 150.503,224.509C150.503,224.685 150.445,224.833 150.329,224.953C150.213,225.073 150.063,225.133 149.879,225.133Z" style="fill:white;fill-rule:nonzero;"/>
            <path d="M152.471,231.973L151.751,231.973L151.751,226.141L152.447,226.141L152.447,227.221L152.591,227.221C152.735,226.909 152.971,226.631 153.299,226.387C153.627,226.143 154.103,226.021 154.727,226.021C155.151,226.021 155.539,226.109 155.891,226.285C156.243,226.461 156.525,226.727 156.737,227.083C156.949,227.439 157.055,227.885 157.055,228.421L157.055,231.973L156.335,231.973L156.335,228.469C156.335,227.829 156.175,227.369 155.855,227.089C155.535,226.809 155.107,226.669 154.571,226.669C153.971,226.669 153.471,226.867 153.071,227.263C152.671,227.659 152.471,228.257 152.471,229.057L152.471,231.973Z" style="fill:white;fill-rule:nonzero;"/>
            <path d="M161.951,231.973L160.439,231.973C160.127,231.973 159.893,231.893 159.737,231.733C159.581,231.573 159.503,231.349 159.503,231.061L159.503,226.789L157.631,226.789L157.631,226.141L159.503,226.141L159.503,223.957L160.223,223.957L160.223,226.141L162.263,226.141L162.263,226.789L160.223,226.789L160.223,230.965C160.223,231.205 160.343,231.325 160.583,231.325L161.951,231.325L161.951,231.973Z" style="fill:white;fill-rule:nonzero;"/>
            <path d="M165.743,232.141C165.143,232.141 164.621,232.015 164.177,231.763C163.733,231.511 163.387,231.157 163.139,230.701C162.891,230.245 162.767,229.721 162.767,229.129L162.767,228.985C162.767,228.385 162.891,227.859 163.139,227.407C163.387,226.955 163.729,226.603 164.165,226.351C164.601,226.099 165.099,225.973 165.659,225.973C166.203,225.973 166.685,226.087 167.105,226.315C167.525,226.543 167.855,226.871 168.095,227.299C168.335,227.727 168.455,228.237 168.455,228.829L168.455,229.213L163.487,229.213C163.511,229.941 163.733,230.503 164.153,230.899C164.573,231.295 165.103,231.493 165.743,231.493C166.287,231.493 166.709,231.369 167.009,231.121C167.309,230.873 167.539,230.569 167.699,230.209L168.347,230.497C168.227,230.761 168.061,231.019 167.849,231.271C167.637,231.523 167.363,231.731 167.027,231.895C166.691,232.059 166.263,232.141 165.743,232.141ZM163.499,228.589L167.723,228.589C167.691,227.957 167.487,227.471 167.111,227.131C166.735,226.791 166.251,226.621 165.659,226.621C165.075,226.621 164.591,226.791 164.207,227.131C163.823,227.471 163.587,227.957 163.499,228.589Z" style="fill:white;fill-rule:nonzero;"/>
            <path d="M170.351,231.973L169.631,231.973L169.631,226.141L170.327,226.141L170.327,226.873L170.471,226.873C170.583,226.609 170.749,226.417 170.969,226.297C171.189,226.177 171.495,226.117 171.887,226.117L172.571,226.117L172.571,226.789L171.803,226.789C171.363,226.789 171.011,226.913 170.747,227.161C170.483,227.409 170.351,227.797 170.351,228.325L170.351,231.973Z" style="fill:white;fill-rule:nonzero;"/>
            <path d="M178.523,231.973L177.755,231.973L177.755,224.269L174.947,224.269L174.947,223.573L181.331,223.573L181.331,224.269L178.523,224.269L178.523,231.973Z" style="fill:white;fill-rule:nonzero;"/>
            <path d="M183.575,232.141C182.975,232.141 182.453,232.015 182.009,231.763C181.565,231.511 181.219,231.157 180.971,230.701C180.723,230.245 180.599,229.721 180.599,229.129L180.599,228.985C180.599,228.385 180.723,227.859 180.971,227.407C181.219,226.955 181.561,226.603 181.997,226.351C182.433,226.099 182.931,225.973 183.491,225.973C184.035,225.973 184.517,226.087 184.937,226.315C185.357,226.543 185.687,226.871 185.927,227.299C186.167,227.727 186.287,228.237 186.287,228.829L186.287,229.213L181.319,229.213C181.343,229.941 181.565,230.503 181.985,230.899C182.405,231.295 182.935,231.493 183.575,231.493C184.119,231.493 184.541,231.369 184.841,231.121C185.141,230.873 185.371,230.569 185.531,230.209L186.179,230.497C186.059,230.761 185.893,231.019 185.681,231.271C185.469,231.523 185.195,231.731 184.859,231.895C184.523,232.059 184.095,232.141 183.575,232.141ZM181.331,228.589L185.555,228.589C185.523,227.957 185.319,227.471 184.943,227.131C184.567,226.791 184.083,226.621 183.491,226.621C182.907,226.621 182.423,226.791 182.039,227.131C181.655,227.471 181.419,227.957 181.331,228.589Z" style="fill:white;fill-rule:nonzero;"/>
            <path d="M190.127,232.141C189.559,232.141 189.053,232.019 188.609,231.775C188.165,231.531 187.815,231.181 187.559,230.725C187.303,230.269 187.175,229.733 187.175,229.117L187.175,228.997C187.175,228.373 187.303,227.835 187.559,227.383C187.815,226.931 188.165,226.583 188.609,226.339C189.053,226.095 189.559,225.973 190.127,225.973C190.687,225.973 191.161,226.079 191.549,226.291C191.937,226.503 192.241,226.779 192.461,227.119C192.681,227.459 192.819,227.817 192.875,228.193L192.167,228.337C192.127,228.025 192.027,227.739 191.867,227.479C191.707,227.219 191.483,227.011 191.195,226.855C190.907,226.699 190.551,226.621 190.127,226.621C189.703,226.621 189.323,226.719 188.987,226.915C188.651,227.111 188.385,227.387 188.189,227.743C187.993,228.099 187.895,228.521 187.895,229.009L187.895,229.105C187.895,229.593 187.993,230.015 188.189,230.371C188.385,230.727 188.651,231.003 188.987,231.199C189.323,231.395 189.703,231.493 190.127,231.493C190.767,231.493 191.255,231.327 191.591,230.995C191.927,230.663 192.135,230.257 192.215,229.777L192.923,229.921C192.851,230.297 192.701,230.655 192.473,230.995C192.245,231.335 191.937,231.611 191.549,231.823C191.161,232.035 190.687,232.141 190.127,232.141Z" style="fill:white;fill-rule:nonzero;"/>
            <path d="M194.819,231.973L194.099,231.973L194.099,223.573L194.819,223.573L194.819,227.161L194.963,227.161C195.059,226.969 195.193,226.787 195.365,226.615C195.537,226.443 195.761,226.303 196.037,226.195C196.313,226.087 196.659,226.033 197.075,226.033C197.499,226.033 197.887,226.121 198.239,226.297C198.591,226.473 198.873,226.737 199.085,227.089C199.297,227.441 199.403,227.885 199.403,228.421L199.403,231.973L198.683,231.973L198.683,228.469C198.683,227.829 198.523,227.371 198.203,227.095C197.883,226.819 197.455,226.681 196.919,226.681C196.319,226.681 195.819,226.877 195.419,227.269C195.019,227.661 194.819,228.257 194.819,229.057L194.819,231.973Z" style="fill:white;fill-rule:nonzero;"/>
            <path d="M201.563,231.973L200.843,231.973L200.843,226.141L201.539,226.141L201.539,227.221L201.683,227.221C201.827,226.909 202.063,226.631 202.391,226.387C202.719,226.143 203.195,226.021 203.819,226.021C204.243,226.021 204.631,226.109 204.983,226.285C205.335,226.461 205.617,226.727 205.829,227.083C206.041,227.439 206.147,227.885 206.147,228.421L206.147,231.973L205.427,231.973L205.427,228.469C205.427,227.829 205.267,227.369 204.947,227.089C204.627,226.809 204.199,226.669 203.663,226.669C203.063,226.669 202.563,226.867 202.163,227.263C201.763,227.659 201.563,228.257 201.563,229.057L201.563,231.973Z" style="fill:white;fill-rule:nonzero;"/>
            <path d="M210.251,232.141C209.659,232.141 209.141,232.015 208.697,231.763C208.253,231.511 207.909,231.159 207.665,230.707C207.421,230.255 207.299,229.729 207.299,229.129L207.299,228.985C207.299,228.385 207.421,227.859 207.665,227.407C207.909,226.955 208.253,226.603 208.697,226.351C209.141,226.099 209.659,225.973 210.251,225.973C210.843,225.973 211.361,226.099 211.805,226.351C212.249,226.603 212.593,226.955 212.837,227.407C213.081,227.859 213.203,228.385 213.203,228.985L213.203,229.129C213.203,229.729 213.081,230.255 212.837,230.707C212.593,231.159 212.249,231.511 211.805,231.763C211.361,232.015 210.843,232.141 210.251,232.141ZM210.251,231.493C210.939,231.493 211.483,231.275 211.883,230.839C212.283,230.403 212.483,229.825 212.483,229.105L212.483,229.009C212.483,228.289 212.283,227.711 211.883,227.275C211.483,226.839 210.939,226.621 210.251,226.621C209.571,226.621 209.029,226.839 208.625,227.275C208.221,227.711 208.019,228.289 208.019,229.009L208.019,229.105C208.019,229.825 208.221,230.403 208.625,230.839C209.029,231.275 209.571,231.493 210.251,231.493Z" style="fill:white;fill-rule:nonzero;"/>
            <rect x="214.427" y="223.573" width="0.72" height="8.4" style="fill:white;fill-rule:nonzero;"/>
            <path d="M219.323,232.141C218.731,232.141 218.213,232.015 217.769,231.763C217.325,231.511 216.981,231.159 216.737,230.707C216.493,230.255 216.371,229.729 216.371,229.129L216.371,228.985C216.371,228.385 216.493,227.859 216.737,227.407C216.981,226.955 217.325,226.603 217.769,226.351C218.213,226.099 218.731,225.973 219.323,225.973C219.915,225.973 220.433,226.099 220.877,226.351C221.321,226.603 221.665,226.955 221.909,227.407C222.153,227.859 222.275,228.385 222.275,228.985L222.275,229.129C222.275,229.729 222.153,230.255 221.909,230.707C221.665,231.159 221.321,231.511 220.877,231.763C220.433,232.015 219.915,232.141 219.323,232.141ZM219.323,231.493C220.011,231.493 220.555,231.275 220.955,230.839C221.355,230.403 221.555,229.825 221.555,229.105L221.555,229.009C221.555,228.289 221.355,227.711 220.955,227.275C220.555,226.839 220.011,226.621 219.323,226.621C218.643,226.621 218.101,226.839 217.697,227.275C217.293,227.711 217.091,228.289 217.091,229.009L217.091,229.105C217.091,229.825 217.293,230.403 217.697,230.839C218.101,231.275 218.643,231.493 219.323,231.493Z" style="fill:white;fill-rule:nonzero;"/>
            <path d="M223.211,229.081L223.211,228.937C223.211,228.321 223.337,227.793 223.589,227.353C223.841,226.913 224.179,226.573 224.603,226.333C225.027,226.093 225.499,225.973 226.019,225.973C226.659,225.973 227.157,226.099 227.513,226.351C227.869,226.603 228.131,226.889 228.299,227.209L228.443,227.209L228.443,226.141L229.115,226.141L229.115,233.461C229.115,233.749 229.039,233.973 228.887,234.133C228.735,234.293 228.503,234.373 228.191,234.373L224.207,234.373L224.207,233.725L228.047,233.725C228.295,233.725 228.419,233.605 228.419,233.365L228.419,230.857L228.275,230.857C228.171,231.049 228.025,231.237 227.837,231.421C227.649,231.605 227.407,231.755 227.111,231.871C226.815,231.987 226.451,232.045 226.019,232.045C225.499,232.045 225.025,231.925 224.597,231.685C224.169,231.445 223.831,231.103 223.583,230.659C223.335,230.215 223.211,229.689 223.211,229.081ZM226.187,231.397C226.851,231.397 227.389,231.189 227.801,230.773C228.213,230.357 228.419,229.785 228.419,229.057L228.419,228.961C228.419,228.225 228.213,227.651 227.801,227.239C227.389,226.827 226.851,226.621 226.187,226.621C225.531,226.621 224.995,226.827 224.579,227.239C224.163,227.651 223.955,228.225 223.955,228.961L223.955,229.057C223.955,229.785 224.163,230.357 224.579,230.773C224.995,231.189 225.531,231.397 226.187,231.397Z" style="fill:white;fill-rule:nonzero;"/>
            <path d="M231.347,231.973L230.627,231.973L230.627,226.141L231.347,226.141L231.347,231.973ZM230.987,225.133C230.811,225.133 230.663,225.073 230.543,224.953C230.423,224.833 230.363,224.685 230.363,224.509C230.363,224.325 230.423,224.175 230.543,224.059C230.663,223.943 230.811,223.885 230.987,223.885C231.171,223.885 231.321,223.943 231.437,224.059C231.553,224.175 231.611,224.325 231.611,224.509C231.611,224.685 231.553,224.833 231.437,224.953C231.321,225.073 231.171,225.133 230.987,225.133Z" style="fill:white;fill-rule:nonzero;"/>
            <path d="M235.547,232.141C234.947,232.141 234.425,232.015 233.981,231.763C233.537,231.511 233.191,231.157 232.943,230.701C232.695,230.245 232.571,229.721 232.571,229.129L232.571,228.985C232.571,228.385 232.695,227.859 232.943,227.407C233.191,226.955 233.533,226.603 233.969,226.351C234.405,226.099 234.903,225.973 235.463,225.973C236.007,225.973 236.489,226.087 236.909,226.315C237.329,226.543 237.659,226.871 237.899,227.299C238.139,227.727 238.259,228.237 238.259,228.829L238.259,229.213L233.291,229.213C233.315,229.941 233.537,230.503 233.957,230.899C234.377,231.295 234.907,231.493 235.547,231.493C236.091,231.493 236.513,231.369 236.813,231.121C237.113,230.873 237.343,230.569 237.503,230.209L238.151,230.497C238.031,230.761 237.865,231.019 237.653,231.271C237.441,231.523 237.167,231.731 236.831,231.895C236.495,232.059 236.067,232.141 235.547,232.141ZM233.303,228.589L237.527,228.589C237.495,227.957 237.291,227.471 236.915,227.131C236.539,226.791 236.055,226.621 235.463,226.621C234.879,226.621 234.395,226.791 234.011,227.131C233.627,227.471 233.391,227.957 233.303,228.589Z" style="fill:white;fill-rule:nonzero;"/>
            <path d="M241.751,232.141C241.047,232.141 240.445,231.973 239.945,231.637C239.445,231.301 239.139,230.745 239.027,229.969L239.735,229.837C239.799,230.261 239.929,230.595 240.125,230.839C240.321,231.083 240.561,231.257 240.845,231.361C241.129,231.465 241.431,231.517 241.751,231.517C242.231,231.517 242.617,231.419 242.909,231.223C243.201,231.027 243.347,230.757 243.347,230.413C243.347,230.061 243.209,229.817 242.933,229.681C242.657,229.545 242.291,229.437 241.835,229.357L241.283,229.261C240.915,229.197 240.583,229.099 240.287,228.967C239.991,228.835 239.757,228.657 239.585,228.433C239.413,228.209 239.327,227.929 239.327,227.593C239.327,227.089 239.525,226.693 239.921,226.405C240.317,226.117 240.843,225.973 241.499,225.973C242.163,225.973 242.697,226.123 243.101,226.423C243.505,226.723 243.759,227.157 243.863,227.725L243.191,227.869C243.111,227.405 242.921,227.077 242.621,226.885C242.321,226.693 241.947,226.597 241.499,226.597C241.059,226.597 240.707,226.681 240.443,226.849C240.179,227.017 240.047,227.265 240.047,227.593C240.047,227.913 240.167,228.147 240.407,228.295C240.647,228.443 240.975,228.553 241.391,228.625L241.943,228.721C242.343,228.785 242.703,228.879 243.023,229.003C243.343,229.127 243.597,229.301 243.785,229.525C243.973,229.749 244.067,230.045 244.067,230.413C244.067,230.965 243.859,231.391 243.443,231.691C243.027,231.991 242.463,232.141 241.751,232.141Z" style="fill:white;fill-rule:nonzero;"/>
        </g>
    </g>
</svg>
